<?xml version="1.0" encoding="UTF-8"?>
<!DOCTYPE svg PUBLIC "-//W3C//DTD SVG 1.1//EN" "http://www.w3.org/Graphics/SVG/1.1/DTD/svg11.dtd">
<!-- Creator: CorelDRAW -->
<svg xmlns="http://www.w3.org/2000/svg" xml:space="preserve" width="180mm" height="160mm" style="shape-rendering:geometricPrecision; text-rendering:geometricPrecision; image-rendering:optimizeQuality; fill-rule:evenodd; clip-rule:evenodd"
viewBox="0 0 180 160">
 <defs>
  <style type="text/css">
   <![CDATA[
    .str2 {stroke:#131516;stroke-width:0.0762;stroke-linecap:round;stroke-linejoin:round}
    .str1 {stroke:#131516;stroke-width:2.1052;stroke-linecap:round;stroke-linejoin:round}
    .str0 {stroke:#131516;stroke-width:2.1052;stroke-linecap:square}
    .fil1 {fill:none}
    .fil0 {fill:white}
    .fil2 {fill:#1F1A17;fill-rule:nonzero}
   ]]>
  </style>
 </defs>
 <g id="Layer_x0020_1">
  <metadata id="CorelCorpID_0Corel-Layer"/>
  <g id="_149976832">
   <polygon id="_22384784" class="fil0 str0" points="50.2631,19.6131 129.737,19.6131 129.737,140.387 50.2631,140.387 "/>
   <line id="_149955152" class="fil1 str1" x1="50.2631" y1="39.8308" x2="10.5263" y2= "39.8308" />
   <line id="_149880560" class="fil1 str2" x1="10.5263" y1="39.8308" x2="50.2631" y2= "39.8308" />
   <line id="_149880608" class="fil1 str1" x1="10.5263" y1="120.169" x2="50.2631" y2= "120.169" />
   <line id="_149963064" class="fil1 str2" x1="50.2631" y1="120.169" x2="10.5263" y2= "120.169" />
   <line id="_149909080" class="fil1 str1" x1="129.737" y1="80.0001" x2="169.474" y2= "80.0001" />
   <line id="_149961816" class="fil1 str2" x1="169.474" y1="80.0001" x2="129.737" y2= "80.0001" />
   <path id="_151148456" class="fil2" d="M94.5669 58.9073c-1.0059,1.1215 -2.1043,1.9597 -3.2894,2.5147 -1.185,0.5607 -2.4684,0.8382 -3.8442,0.8382 -2.5378,0 -4.5554,-0.8556 -6.0468,-2.5725 -1.2082,-1.399 -1.8094,-2.9656 -1.8094,-4.694 0,-1.532 0.4913,-2.9194 1.4799,-4.1565 0.9885,-1.2371 2.4626,-2.3239 4.4281,-3.2604 -1.1157,-1.2833 -1.8614,-2.3297 -2.2314,-3.1332 -0.3758,-0.7978 -0.5607,-1.5724 -0.5607,-2.3182 0,-1.4914 0.5838,-2.7863 1.7516,-3.8905 1.1677,-1.0983 2.6418,-1.6475 4.4108,-1.6475 1.6937,0 3.0812,0.5203 4.1622,1.555 1.0752,1.0406 1.6128,2.2893 1.6128,3.746 0,2.3586 -1.5608,4.3761 -4.6882,6.0468l4.4512 5.671c0.5087,-0.9943 0.9076,-2.1447 1.1851,-3.4511l3.1679 0.6763c-0.5434,2.1679 -1.2718,3.9484 -2.2025,5.3473 1.1446,1.5146 2.4338,2.7864 3.879,3.8154l-2.0465 2.4222c-1.2313,-0.792 -2.5031,-1.9597 -3.8095,-3.509zm-6.2029 -12.9376c1.3238,-0.7804 2.1794,-1.4625 2.5667,-2.0522 0.3931,-0.5839 0.5839,-1.2313 0.5839,-1.9481 0,-0.844 -0.266,-1.5377 -0.8036,-2.0696 -0.5376,-0.5376 -1.2024,-0.8093 -2.0059,-0.8093 -0.8267,0 -1.5089,0.2659 -2.058,0.7978 -0.5492,0.5318 -0.8209,1.1792 -0.8209,1.9481 0,0.3815 0.0983,0.7862 0.2948,1.214 0.1966,0.422 0.4972,0.8671 0.8903,1.3411l1.3527 1.5782zm4.2894 10.5328l-5.5901 -6.9255c-1.6476,0.9827 -2.7633,1.8961 -3.3356,2.7343 -0.5781,0.844 -0.8671,1.6765 -0.8671,2.4974 0,1.0058 0.4047,2.0522 1.2024,3.1332 0.8036,1.0868 1.9366,1.6244 3.4049,1.6244 0.9134,0 1.8615,-0.2832 2.8385,-0.8555 0.9769,-0.5666 1.7573,-1.3065 2.347,-2.2083z"/>
  </g>
 </g>
</svg>
