<?xml version="1.0" encoding="UTF-8"?>
<!DOCTYPE svg PUBLIC "-//W3C//DTD SVG 1.1//EN" "http://www.w3.org/Graphics/SVG/1.1/DTD/svg11.dtd">
<!-- Creator: CorelDRAW -->
<svg xmlns="http://www.w3.org/2000/svg" xml:space="preserve" width="180mm" height="160mm" style="shape-rendering:geometricPrecision; text-rendering:geometricPrecision; image-rendering:optimizeQuality; fill-rule:evenodd; clip-rule:evenodd"
viewBox="0 0 180 160">
 <defs>
  <style type="text/css">
   <![CDATA[
    .str2 {stroke:#131516;stroke-width:0.0762;stroke-linecap:round;stroke-linejoin:round}
    .str1 {stroke:#131516;stroke-width:2.1052;stroke-linecap:round;stroke-linejoin:round}
    .str0 {stroke:#131516;stroke-width:2.1052;stroke-linecap:square}
    .fil1 {fill:none}
    .fil0 {fill:white}
   ]]>
  </style>
 </defs>
 <g id="Layer_x0020_1">
  <metadata id="CorelCorpID_0Corel-Layer"/>
  <g id="_150017112">
   <polygon id="_149914904" class="fil0 str0" points="50.1315,19.746 129.605,19.746 129.605,140.254 50.1315,140.254 "/>
   <line id="_149913400" class="fil1 str1" x1="50.1315" y1="80.133" x2="10.3947" y2= "80.133" />
   <line id="_149926320" class="fil1 str2" x1="10.3947" y1="80.133" x2="50.1315" y2= "80.133" />
   <line id="_149926504" class="fil1 str1" x1="129.605" y1="80.133" x2="169.605" y2= "80.133" />
   <polygon id="_149927208" class="fil0 str1" points="139.605,79.0689 139.605,78.5368 139.342,78.2708 139.342,77.7388 139.342,77.4727 139.079,77.2067 139.079,77.2067 139.079,77.2067 139.079,76.6747 138.816,76.4086 138.816,75.8766 138.553,75.6106 138.553,75.3446 138.553,75.3446 138.553,75.3446 138.289,74.8125 138.026,74.5465 137.763,74.2805 137.5,74.0145 137.237,73.7484 137.237,73.7484 137.237,73.7484 136.974,73.4824 136.711,72.9504 136.447,72.6843 136.184,72.4183 135.921,72.1523 135.921,72.1523 135.921,72.1523 135.658,72.1523 135.395,71.8863 135.132,71.6203 134.605,71.3542 134.342,71.0882 134.342,71.0882 134.342,71.0882 134.079,71.0882 133.553,70.8222 133.289,70.5562 133.026,70.5562 132.5,70.5562 132.5,70.5562 132.5,70.5562 132.237,70.2901 131.711,70.2901 131.447,70.0241 131.184,70.0241 130.658,70.0241 130.658,70.0241 130.658,70.0241 130.395,70.0241 129.868,70.0241 129.605,70.0241 129.079,70.0241 128.816,70.0241 128.816,70.0241 128.816,70.0241 128.289,70.0241 128.026,70.0241 127.5,70.2901 127.237,70.2901 126.711,70.5562 126.711,70.5562 126.711,70.5562 126.447,70.5562 126.184,70.5562 125.658,70.8222 125.395,71.0882 125.132,71.0882 125.132,71.0882 125.132,71.0882 124.605,71.3542 124.342,71.6203 124.079,71.8863 123.816,72.1523 123.289,72.1523 123.289,72.1523 123.289,72.1523 123.026,72.4183 122.763,72.6843 122.5,72.9504 122.237,73.4824 121.974,73.7484 121.974,73.7484 121.974,73.7484 121.711,74.0145 121.447,74.2805 121.447,74.5465 121.184,74.8125 120.921,75.3446 120.921,75.3446 120.921,75.3446 120.921,75.6106 120.658,75.8766 120.395,76.4086 120.395,76.6747 120.132,77.2067 120.132,77.2067 120.132,77.2067 120.132,77.4727 120.132,77.7388 119.868,78.2708 119.868,78.5368 119.868,79.0689 119.868,79.0689 119.868,79.0689 119.868,79.3349 119.868,79.8669 119.868,80.133 119.868,80.665 119.868,80.931 119.868,80.931 119.868,80.931 119.868,81.4631 119.868,81.7291 120.132,82.2611 120.132,82.5272 120.132,82.7932 120.132,82.7932 120.132,82.7932 120.395,83.3252 120.395,83.5912 120.658,84.1233 120.921,84.3893 120.921,84.6553 120.921,84.6553 120.921,84.6553 121.184,85.1874 121.447,85.4534 121.447,85.7194 121.711,85.9854 121.974,86.2515 121.974,86.2515 121.974,86.2515 122.237,86.7835 122.5,87.0495 122.763,87.3155 123.026,87.5816 123.289,87.8476 123.289,87.8476 123.289,87.8476 123.816,88.1136 124.079,88.1136 124.342,88.3796 124.605,88.6457 125.132,88.9117 125.132,88.9117 125.132,88.9117 125.395,88.9117 125.658,89.1777 126.184,89.4437 126.447,89.4437 126.711,89.7097 126.711,89.7097 126.711,89.7097 127.237,89.7097 127.5,89.7097 128.026,89.9758 128.289,89.9758 128.816,89.9758 128.816,89.9758 128.816,89.9758 129.079,89.9758 129.605,89.9758 129.868,89.9758 130.395,89.9758 130.658,89.9758 130.658,89.9758 130.658,89.9758 131.184,89.9758 131.447,89.9758 131.711,89.7097 132.237,89.7097 132.5,89.7097 132.5,89.7097 132.5,89.7097 133.026,89.4437 133.289,89.4437 133.553,89.1777 134.079,88.9117 134.342,88.9117 134.342,88.9117 134.342,88.9117 134.605,88.6457 135.132,88.3796 135.395,88.1136 135.658,88.1136 135.921,87.8476 135.921,87.8476 135.921,87.8476 136.184,87.5816 136.447,87.3155 136.711,87.0495 136.974,86.7835 137.237,86.2515 137.237,86.2515 137.237,86.2515 137.5,85.9854 137.763,85.7194 138.026,85.4534 138.289,85.1874 138.553,84.6553 138.553,84.6553 138.553,84.6553 138.553,84.3893 138.816,84.1233 138.816,83.5912 139.079,83.3252 139.079,82.7932 139.079,82.7932 139.079,82.7932 139.342,82.5272 139.342,82.2611 139.342,81.7291 139.605,81.4631 139.605,80.931 139.605,80.931 139.605,80.931 139.605,80.665 139.605,80.133 139.605,79.8669 139.605,79.3349 139.605,79.0689 "/>
  </g>
 </g>
</svg>
